<?xml version="1.0" encoding="UTF-8" standalone="no"?>
<!-- Created with Inkscape (http://www.inkscape.org/) -->

<svg
   xmlns:dc="http://purl.org/dc/elements/1.1/"
   xmlns:cc="http://creativecommons.org/ns#"
   xmlns:rdf="http://www.w3.org/1999/02/22-rdf-syntax-ns#"
   xmlns:svg="http://www.w3.org/2000/svg"
   xmlns="http://www.w3.org/2000/svg"
   xmlns:sodipodi="http://sodipodi.sourceforge.net/DTD/sodipodi-0.dtd"
   xmlns:inkscape="http://www.inkscape.org/namespaces/inkscape"
   width="76.762962mm"
   height="44.354721mm"
   viewBox="0 0 271.99475 157.1624"
   id="svg4005"
   version="1.1"
   inkscape:version="0.91 r13725"
   sodipodi:docname="ambulance.svg">
  <defs
     id="defs4007">
    <clipPath
       clipPathUnits="userSpaceOnUse"
       id="clipPath3711">
      <path
         d="m 1323.94,2185.62 c -117.04,97.43 -267.1,103.94 -336.288,100.88 -25.363,-1.12 -50.754,-1.12 -76.113,0 -69.191,3.06 -219.25,-3.45 -336.289,-100.88 -26.008,-21.65 -36.812,-58.84 -26.898,-92.9 l 66.39,-228.18 c 0,0 106.035,47.83 305.461,37.01 19.567,-1.06 39.215,-1.06 58.781,0 199.426,10.82 305.466,-37.01 305.466,-37.01 l 66.39,228.18 c 9.91,34.07 -0.89,71.25 -26.9,92.9 z"
         id="path3713"
         inkscape:connector-curvature="0" />
    </clipPath>
  </defs>
  <sodipodi:namedview
     id="base"
     pagecolor="#ffffff"
     bordercolor="#666666"
     borderopacity="1.0"
     inkscape:pageopacity="0.0"
     inkscape:pageshadow="2"
     inkscape:zoom="0.35"
     inkscape:cx="205.28309"
     inkscape:cy="135.72407"
     inkscape:document-units="px"
     inkscape:current-layer="layer1"
     showgrid="false"
     inkscape:window-width="2560"
     inkscape:window-height="1416"
     inkscape:window-x="2560"
     inkscape:window-y="24"
     inkscape:window-maximized="1"
     fit-margin-top="0"
     fit-margin-left="0"
     fit-margin-right="0"
     fit-margin-bottom="0" />
  <metadata
     id="metadata4010">
    <rdf:RDF>
      <cc:Work
         rdf:about="">
        <dc:format>image/svg+xml</dc:format>
        <dc:type
           rdf:resource="http://purl.org/dc/dcmitype/StillImage" />
        <dc:title></dc:title>
      </cc:Work>
    </rdf:RDF>
  </metadata>
  <g
     inkscape:label="Layer 1"
     inkscape:groupmode="layer"
     id="layer1"
     transform="translate(-169.71691,-510.92387)">
    <g
       id="g3366"
       transform="matrix(0,1,-1,0,895.21935,283.79078)">
      <path
         inkscape:connector-curvature="0"
         id="path3383"
         style="fill:#252323;fill-opacity:1;fill-rule:nonzero;stroke:none"
         d="m 375.27991,544.20519 c -1.28375,-0.76125 -2.46125,-1.02375 -3.42125,-0.895 l 0,-45.6625 c -0.68125,-7.5625 -3.2025,-13.52375 -6.65625,-18.21875 -4.50625,-6.13875 -10.61125,-10.11625 -16.3075,-12.6775 -6.79375,-3.04875 -14.09875,-4.49375 -21.43875,-4.49375 l -35.97787,0 c -7.33938,0 -14.65138,1.445 -21.439,4.49375 -6.35538,2.8625 -13.22363,7.48375 -17.81488,14.9025 -2.67487,4.3125 -4.57475,9.58125 -5.15525,15.99375 l 0,45.6625 c -0.9595,-0.12875 -2.13725,0.13375 -3.4205,0.895 -2.52337,1.5 -4.92625,3.94875 -6.76562,7.03 -0.50238,0.84125 -2.73775,4.2825 -2.15325,5.85125 0.5005,1.34375 3.74025,-0.1 4.32425,-0.2725 2.73875,-0.8025 5.88762,-2.69125 8.01512,-5.145 l 0,158.52975 c 0,4.16512 2.03125,7.8575 5.15525,10.14025 2.07713,1.5175 4.63138,2.41112 7.397,2.41112 l 1.23088,0 0,2.75238 12.522,0 0,-2.75238 72.18062,0 0,2.75238 12.52125,0 0,-2.75238 1.23125,0 c 2.13375,0 4.1375,-0.52887 5.895,-1.46737 3.96,-2.11613 6.65625,-6.2875 6.65625,-11.084 l 0,-158.52975 c 2.12875,2.45375 5.2775,4.3425 8.01625,5.145 0.58375,0.1725 3.82375,1.61625 4.32375,0.2725 0.585,-1.56875 -1.65125,-5.01 -2.1525,-5.85125 -1.84,-3.08125 -4.2425,-5.53 -6.76625,-7.03" />
      <path
         inkscape:connector-curvature="0"
         id="path3691"
         style="fill:#dbe5e9;fill-opacity:1;fill-rule:nonzero;stroke:none"
         d="m 364.35867,488.8977 0,212.551 c 0,4.7965 -2.69625,8.96786 -6.65625,11.08399 -1.7575,0.9385 -3.76125,1.46736 -5.895,1.46736 l -99.686,0 c -2.76562,0 -5.31987,-0.89361 -7.397,-2.41112 -3.12401,-2.28274 -5.15526,-5.97513 -5.15526,-10.14024 l 0,-212.551 c 0.58051,-6.41251 2.48038,-11.68125 5.15526,-15.99375 4.59124,-7.41875 11.4595,-12.04 17.81488,-14.9025 6.78761,-3.04875 14.09961,-4.49375 21.43899,-4.49375 l 35.97788,0 c 7.34,0 14.645,1.445 21.43875,4.49375 5.69625,2.56125 11.80125,6.53875 16.3075,12.6775 3.45375,4.695 5.975,10.65625 6.65625,18.21875" />
      <path
         inkscape:connector-curvature="0"
         id="path3693"
         style="fill:#21272d;fill-opacity:1;fill-rule:nonzero;stroke:none"
         d="m 243.42942,521.10893 0,44.68875 10.37312,2.14625 0,-16.69875 c 0,-5.20374 -1.16949,-10.37124 -3.4615,-15.2925 l -6.91162,-14.84375" />
      <path
         inkscape:connector-curvature="0"
         id="path3695"
         style="fill:#21272d;fill-opacity:1;fill-rule:nonzero;stroke:none"
         d="m 360.49866,521.10894 0,44.68875 -10.3725,2.14625 0,-16.69875 c 0,-5.20375 1.16875,-10.37125 3.46125,-15.2925 l 6.91125,-14.84375" />
      <path
         inkscape:connector-curvature="0"
         id="path3697"
         style="fill:#ffffff;fill-opacity:1;fill-rule:nonzero;stroke:none"
         d="m 247.95091,477.18019 c -0.86125,-0.945 -0.791,-2.495 0.01,-3.50375 1.69,-2.12375 3.08213,-4.7325 5.08113,-6.7325 2.38375,-2.3875 6.0435,-5.2925 9.65137,-7.0975 1.55275,-0.77625 3.17675,0.8775 2.61125,2.64 -0.21725,0.6775 -0.39637,1.3275 -0.54587,1.865 -0.79738,2.8625 -1.43063,4.83125 -3.415,7.05625 -1.86863,2.09625 -10.59713,8.84125 -13.39263,5.7725" />
      <path
         inkscape:connector-curvature="0"
         id="path3699"
         style="fill:#ffffff;fill-opacity:1;fill-rule:nonzero;stroke:none"
         d="m 355.97741,477.18019 c 0.86125,-0.945 0.79125,-2.495 -0.01,-3.50375 -1.68875,-2.12375 -3.08125,-4.7325 -5.08,-6.7325 -2.385,-2.3875 -6.04375,-5.2925 -9.6525,-7.0975 -1.5525,-0.77625 -3.17625,0.8775 -2.61125,2.64 0.2175,0.6775 0.39625,1.3275 0.54625,1.865 0.7975,2.8625 1.43125,4.83125 3.415,7.05625 1.86875,2.09625 10.5975,8.84125 13.3925,5.7725" />
      <path
         inkscape:connector-curvature="0"
         id="path3701"
         style="fill:#bfc9d2;fill-opacity:1;fill-rule:nonzero;stroke:none"
         d="m 241.62966,535.95519 c -0.82175,-1.5775 -2.95262,-2.00125 -5.481,-0.5 -2.52337,1.5 -4.92625,3.9475 -6.76612,7.03 -0.50188,0.84125 -2.73725,4.2825 -2.15275,5.85125 0.5005,1.34375 3.74025,-0.1 4.32425,-0.2725 3.49312,-1.02375 7.67862,-3.8 9.52187,-7.2825 1.0615,-2.005 1.13725,-3.70625 0.55375,-4.82625" />
      <path
         inkscape:connector-curvature="0"
         id="path3703"
         style="fill:#bfc9d2;fill-opacity:1;fill-rule:nonzero;stroke:none"
         d="m 362.29991,535.95519 c 0.82125,-1.5775 2.95125,-2.00125 5.48,-0.5 2.52375,1.5 4.92625,3.9475 6.76625,7.03 0.50125,0.84125 2.7375,4.2825 2.1525,5.85125 -0.5,1.34375 -3.74,-0.1 -4.32375,-0.2725 -3.49375,-1.02375 -7.67875,-3.8 -9.5225,-7.2825 -1.06125,-2.005 -1.1375,-3.70625 -0.5525,-4.82625" />
      <path
         inkscape:connector-curvature="0"
         id="path3705"
         style="fill:#21272d;fill-opacity:1;fill-rule:nonzero;stroke:none"
         d="m 348.75741,502.94644 c -14.63,-12.17875 -33.3875,-12.9925 -42.036,-12.61 -3.17037,0.14 -6.34425,0.14 -9.51412,0 -8.64888,-0.3825 -27.40625,0.43125 -42.03613,12.61 -3.251,2.70625 -4.6015,7.355 -3.36225,11.6125 l 8.29875,28.5225 c 0,0 13.25438,-5.97875 38.18263,-4.62625 2.44587,0.1325 4.90187,0.1325 7.34762,0 24.92825,-1.3525 38.18325,4.62625 38.18325,4.62625 l 8.29875,-28.5225 c 1.23875,-4.25875 -0.11125,-8.90625 -3.3625,-11.6125" />
      <g
         id="g3707"
         transform="matrix(0.125,0,0,-0.125,183.26491,776.14894)">
        <g
           clip-path="url(#clipPath3711)"
           id="g3709">
          <path
             inkscape:connector-curvature="0"
             id="path3715"
             style="fill:#4b5762;fill-opacity:1;fill-rule:nonzero;stroke:none"
             d="m 635.438,1843.47 -49.012,0 236.226,464.67 49.012,0 -236.226,-464.67" />
          <path
             inkscape:connector-curvature="0"
             id="path3717"
             style="fill:#4b5762;fill-opacity:1;fill-rule:nonzero;stroke:none"
             d="m 721.633,1843.47 -49.016,0 236.227,464.67 49.011,0 -236.222,-464.67" />
          <path
             inkscape:connector-curvature="0"
             id="path3719"
             style="fill:#4b5762;fill-opacity:1;fill-rule:nonzero;stroke:none"
             d="m 990.348,1843.47 -49.016,0 236.228,464.67 49.01,0 -236.222,-464.67" />
          <path
             inkscape:connector-curvature="0"
             id="path3721"
             style="fill:#4b5762;fill-opacity:1;fill-rule:nonzero;stroke:none"
             d="m 1076.54,1843.47 -49.01,0 236.22,464.67 49.01,0 -236.22,-464.67" />
        </g>
      </g>
      <path
         inkscape:connector-curvature="0"
         id="path3723"
         style="fill:#d5242c;fill-opacity:1;fill-rule:nonzero;stroke:none"
         d="m 244.72441,472.90394 0,41.91625 -5.15525,0 0,-25.9225 c 0.5805,-6.4125 2.48038,-11.68125 5.15525,-15.99375" />
      <path
         inkscape:connector-curvature="0"
         id="path3725"
         style="fill:#d5242c;fill-opacity:1;fill-rule:nonzero;stroke:none"
         d="m 244.72441,577.21144 0,134.37751 c -3.124,-2.28275 -5.15525,-5.97514 -5.15525,-10.14026 l 0,-124.23725 5.15525,0" />
      <path
         inkscape:connector-curvature="0"
         id="path3727"
         style="fill:#d5242c;fill-opacity:1;fill-rule:nonzero;stroke:none"
         d="m 364.35866,488.89769 0,25.9225 -6.65625,0 0,-44.14125 c 3.45375,4.695 5.975,10.65625 6.65625,18.21875" />
      <path
         inkscape:connector-curvature="0"
         id="path3729"
         style="fill:#d5242c;fill-opacity:1;fill-rule:nonzero;stroke:none"
         d="m 364.35866,577.21144 0,124.23725 c 0,4.7965 -2.69625,8.96787 -6.65625,11.084 l 0,-135.32125 6.65625,0" />
      <path
         inkscape:connector-curvature="0"
         id="path3731"
         style="fill:#e7f1f3;fill-opacity:1;fill-rule:nonzero;stroke:none"
         d="m 331.85991,703.53519 -59.79175,0 c -8.24512,0 -14.92925,-6.68363 -14.92925,-14.92875 l 0,-127.165 c 0,-8.245 6.68413,-14.92875 14.92925,-14.92875 l 59.79175,0 c 8.24625,0 14.93,6.68375 14.93,14.92875 l 0,127.165 c 0,8.24512 -6.68375,14.92875 -14.93,14.92875" />
      <path
         inkscape:connector-curvature="0"
         id="path3733"
         style="fill:#3a9bb2;fill-opacity:1;fill-rule:nonzero;stroke:none"
         d="m 331.02616,623.07519 -9.04375,-13.21 -12.01375,8.225 0,-14.56 -16.00887,0 0,14.56 -12.01375,-8.225 -9.04438,13.21 14.8925,10.19625 -14.8925,10.195 9.04438,13.21125 12.01375,-8.225 0,14.5585 16.00887,0 0,-14.5585 12.01375,8.225 9.04375,-13.21125 -14.8925,-10.195 14.8925,-10.19625" />
      <path
         inkscape:connector-curvature="0"
         id="path3735"
         style="fill:#3a9bb2;fill-opacity:1;fill-rule:nonzero;stroke:none"
         d="m 313.51867,469.64519 -3.595,-5.25125 -4.77688,3.26875 0,-5.7875 -6.36474,0 0,5.7875 -4.77589,-3.26875 -3.59574,5.25125 5.92038,4.05375 -5.92038,4.0525 3.59574,5.2525 4.77589,-3.27 0,5.78875 6.36474,0 0,-5.78875 4.77688,3.27 3.595,-5.2525 -5.92075,-4.0525 5.92075,-4.05375" />
      <path
         inkscape:connector-curvature="0"
         id="path3737"
         style="fill:#d5242c;fill-opacity:1;fill-rule:nonzero;stroke:none"
         d="m 285.21755,577.71645 -15.00288,0 c -1.70901,0 -3.09526,-1.38626 -3.09526,-3.09627 l 0,-8.0825 c 0,-1.70999 1.38625,-3.09624 3.09526,-3.09624 l 15.00288,0 0,14.275" />
      <path
         inkscape:connector-curvature="0"
         id="path3739"
         style="fill:#36404a;fill-opacity:1;fill-rule:nonzero;stroke:none"
         d="m 285.21754,577.71644 33.49362,0 0,-14.27488 -33.49362,0 0,14.27488 z" />
      <path
         inkscape:connector-curvature="0"
         id="path3741"
         style="fill:#21272d;fill-opacity:1;fill-rule:nonzero;stroke:none"
         d="m 285.21754,574.75894 33.49362,0 0,-8.35986 -33.49362,0 0,8.35986 z" />
      <path
         inkscape:connector-curvature="0"
         id="path3743"
         style="fill:#e43849;fill-opacity:1;fill-rule:nonzero;stroke:none"
         d="m 270.86941,574.75895 10.59816,0 0,-8.35986 -10.59816,0 0,8.35986 z" />
      <path
         inkscape:connector-curvature="0"
         id="path3745"
         style="fill:#d5242c;fill-opacity:1;fill-rule:nonzero;stroke:none"
         d="m 333.71366,577.71644 -15.0025,0 0,-14.275 15.0025,0 c 1.71,0 3.095,1.38625 3.095,3.09625 l 0,8.0825 c 0,1.71 -1.385,3.09625 -3.095,3.09625" />
      <path
         inkscape:connector-curvature="0"
         id="path3747"
         style="fill:#e43849;fill-opacity:1;fill-rule:nonzero;stroke:none"
         d="m 322.46116,574.75894 10.59766,0 0,-8.35986 -10.59766,0 0,8.35986 z" />
      <path
         inkscape:connector-curvature="0"
         id="path3749"
         style="fill:#d5242c;fill-opacity:1;fill-rule:nonzero;stroke:none"
         d="m 253.35229,716.75244 12.522,0 0,-2.75244 -12.522,0 0,2.75244 z" />
      <path
         inkscape:connector-curvature="0"
         id="path3751"
         style="fill:#d5242c;fill-opacity:1;fill-rule:nonzero;stroke:none"
         d="m 338.05491,716.75244 12.521,0 0,-2.75244 -12.521,0 0,2.75244 z" />
    </g>
  </g>
</svg>
