<?xml version="1.0" encoding="UTF-8" standalone="no"?>
<!-- Created with Inkscape (http://www.inkscape.org/) -->

<svg
   xmlns:dc="http://purl.org/dc/elements/1.1/"
   xmlns:cc="http://creativecommons.org/ns#"
   xmlns:rdf="http://www.w3.org/1999/02/22-rdf-syntax-ns#"
   xmlns:svg="http://www.w3.org/2000/svg"
   xmlns="http://www.w3.org/2000/svg"
   xmlns:sodipodi="http://sodipodi.sourceforge.net/DTD/sodipodi-0.dtd"
   xmlns:inkscape="http://www.inkscape.org/namespaces/inkscape"
   width="76.762962mm"
   height="44.354721mm"
   viewBox="0 0 271.99475 157.1624"
   id="svg4005"
   version="1.1"
   inkscape:version="0.92.2 (5c3e80d, 2017-08-06)"
   sodipodi:docname="ambulance_black.svg">
  <defs
     id="defs4007">
    <clipPath
       clipPathUnits="userSpaceOnUse"
       id="clipPath3711">
      <path
         d="m 1323.94,2185.62 c -117.04,97.43 -267.1,103.94 -336.288,100.88 -25.363,-1.12 -50.754,-1.12 -76.113,0 -69.191,3.06 -219.25,-3.45 -336.289,-100.88 -26.008,-21.65 -36.812,-58.84 -26.898,-92.9 l 66.39,-228.18 c 0,0 106.035,47.83 305.461,37.01 19.567,-1.06 39.215,-1.06 58.781,0 199.426,10.82 305.466,-37.01 305.466,-37.01 l 66.39,228.18 c 9.91,34.07 -0.89,71.25 -26.9,92.9 z"
         id="path3713"
         inkscape:connector-curvature="0" />
    </clipPath>
  </defs>
  <sodipodi:namedview
     id="base"
     pagecolor="#ffffff"
     bordercolor="#666666"
     borderopacity="1.0"
     inkscape:pageopacity="0.0"
     inkscape:pageshadow="2"
     inkscape:zoom="3.959798"
     inkscape:cx="53.50767"
     inkscape:cy="155.92712"
     inkscape:document-units="px"
     inkscape:current-layer="layer1"
     showgrid="false"
     inkscape:window-width="2736"
     inkscape:window-height="1699"
     inkscape:window-x="-13"
     inkscape:window-y="-13"
     inkscape:window-maximized="1"
     fit-margin-top="0"
     fit-margin-left="0"
     fit-margin-right="0"
     fit-margin-bottom="0" />
  <metadata
     id="metadata4010">
    <rdf:RDF>
      <cc:Work
         rdf:about="">
        <dc:format>image/svg+xml</dc:format>
        <dc:type
           rdf:resource="http://purl.org/dc/dcmitype/StillImage" />
        <dc:title></dc:title>
      </cc:Work>
    </rdf:RDF>
  </metadata>
  <g
     inkscape:label="Layer 1"
     inkscape:groupmode="layer"
     id="layer1"
     transform="translate(-169.71691,-510.92387)">
    <path
       d="m 362.62559,657.52585 c 0.80644,-1.40763 1.08452,-2.69876 0.94813,-3.7514 h 48.37295 c 8.0114,-0.74699 14.3265,-3.51153 19.30019,-7.29856 6.50313,-4.94109 10.71673,-11.6352 13.43001,-17.88113 3.22972,-7.44933 4.7605,-15.45924 4.7605,-23.50753 v -39.44964 c 0,-8.04761 -1.53078,-16.0652 -4.7605,-23.50781 -3.03241,-6.96865 -7.92797,-14.49967 -15.78708,-19.53396 -4.56849,-2.93299 -10.14998,-5.01621 -16.94312,-5.65272 h -48.37295 c 0.13639,-1.05209 -0.14169,-2.34349 -0.94813,-3.75057 -1.58904,-2.76687 -4.18314,-5.40162 -7.44729,-7.41849 -0.89118,-0.55085 -4.5367,-3.00193 -6.19857,-2.36103 -1.42351,0.5488 0.10594,4.10118 0.28868,4.74153 0.85013,3.00303 2.85099,6.45576 5.45039,8.78856 H 186.77898 c -4.41236,0 -8.32391,2.22726 -10.74216,5.65272 -1.60758,2.27756 -2.55424,5.07829 -2.55424,8.11079 v 1.34965 h -2.91576 v 13.73034 h 2.91576 v 79.14586 h -2.91576 v 13.72952 h 2.91576 v 1.35006 c 0,2.33965 0.56026,4.53676 1.55447,6.46385 2.24174,4.34213 6.66071,7.29856 11.74193,7.29856 H 354.7188 c -2.5994,2.33417 -4.60026,5.78677 -5.45039,8.7898 -0.18274,0.64008 -1.71219,4.19273 -0.28868,4.74098 1.66187,0.64145 5.30739,-1.81059 6.19857,-2.36021 3.26415,-2.01755 5.85825,-4.65189 7.44729,-7.41917"
       style="fill:#252323;fill-opacity:1;fill-rule:nonzero;stroke:none;stroke-width:1.07776797"
       id="path3383"
       inkscape:connector-curvature="0" />
    <path
       d="m 406.32166,648.14945 h -212.551 c -4.7965,0 -8.96786,-2.69625 -11.08399,-6.65625 -0.9385,-1.7575 -1.46736,-3.76125 -1.46736,-5.895 v -99.686 c 0,-2.76562 0.89361,-5.31987 2.41112,-7.397 2.28274,-3.12401 5.97513,-5.15526 10.14024,-5.15526 h 212.551 c 6.41251,0.58051 11.68125,2.48038 15.99375,5.15526 7.41875,4.59124 12.04,11.4595 14.9025,17.81488 3.04875,6.78761 4.49375,14.09961 4.49375,21.43899 v 35.97788 c 0,7.34 -1.445,14.645 -4.49375,21.43875 -2.56125,5.69625 -6.53875,11.80125 -12.6775,16.3075 -4.695,3.45375 -10.65625,5.975 -18.21875,6.65625"
       style="fill:#dbe5e9;fill-opacity:1;fill-rule:nonzero;stroke:none"
       id="path3691"
       inkscape:connector-curvature="0" />
    <path
       d="m 374.11043,527.2202 h -44.68875 l -2.14625,10.37312 h 16.69875 c 5.20374,0 10.37124,-1.16949 15.2925,-3.4615 l 14.84375,-6.91162"
       style="fill:#21272d;fill-opacity:1;fill-rule:nonzero;stroke:none"
       id="path3693"
       inkscape:connector-curvature="0" />
    <path
       d="m 374.11042,644.28944 h -44.68875 l -2.14625,-10.3725 h 16.69875 c 5.20375,0 10.37125,1.16875 15.2925,3.46125 l 14.84375,6.91125"
       style="fill:#21272d;fill-opacity:1;fill-rule:nonzero;stroke:none"
       id="path3695"
       inkscape:connector-curvature="0" />
    <path
       d="m 418.03917,531.74169 c 0.945,-0.86125 2.495,-0.791 3.50375,0.01 2.12375,1.69 4.7325,3.08213 6.7325,5.08113 2.3875,2.38375 5.2925,6.0435 7.0975,9.65137 0.77625,1.55275 -0.8775,3.17675 -2.64,2.61125 -0.6775,-0.21725 -1.3275,-0.39637 -1.865,-0.54587 -2.8625,-0.79738 -4.83125,-1.43063 -7.05625,-3.415 -2.09625,-1.86863 -8.84125,-10.59713 -5.7725,-13.39263"
       style="fill:#ffffff;fill-opacity:1;fill-rule:nonzero;stroke:none"
       id="path3697"
       inkscape:connector-curvature="0" />
    <path
       d="m 418.03917,639.76819 c 0.945,0.86125 2.495,0.79125 3.50375,-0.01 2.12375,-1.68875 4.7325,-3.08125 6.7325,-5.08 2.3875,-2.385 5.2925,-6.04375 7.0975,-9.6525 0.77625,-1.5525 -0.8775,-3.17625 -2.64,-2.61125 -0.6775,0.2175 -1.3275,0.39625 -1.865,0.54625 -2.8625,0.7975 -4.83125,1.43125 -7.05625,3.415 -2.09625,1.86875 -8.84125,10.5975 -5.7725,13.3925"
       style="fill:#ffffff;fill-opacity:1;fill-rule:nonzero;stroke:none"
       id="path3699"
       inkscape:connector-curvature="0" />
    <path
       d="m 359.26417,525.42044 c 1.5775,-0.82175 2.00125,-2.95262 0.5,-5.481 -1.5,-2.52337 -3.9475,-4.92625 -7.03,-6.76612 -0.84125,-0.50188 -4.2825,-2.73725 -5.85125,-2.15275 -1.34375,0.5005 0.1,3.74025 0.2725,4.32425 1.02375,3.49312 3.8,7.67862 7.2825,9.52187 2.005,1.0615 3.70625,1.13725 4.82625,0.55375"
       style="fill:#bfc9d2;fill-opacity:1;fill-rule:nonzero;stroke:none"
       id="path3701"
       inkscape:connector-curvature="0" />
    <path
       d="m 359.26417,646.09069 c 1.5775,0.82125 2.00125,2.95125 0.5,5.48 -1.5,2.52375 -3.9475,4.92625 -7.03,6.76625 -0.84125,0.50125 -4.2825,2.7375 -5.85125,2.1525 -1.34375,-0.5 0.1,-3.74 0.2725,-4.32375 1.02375,-3.49375 3.8,-7.67875 7.2825,-9.5225 2.005,-1.06125 3.70625,-1.1375 4.82625,-0.5525"
       style="fill:#bfc9d2;fill-opacity:1;fill-rule:nonzero;stroke:none"
       id="path3703"
       inkscape:connector-curvature="0" />
    <path
       d="m 392.27292,632.54819 c 12.17875,-14.63 12.9925,-33.3875 12.61,-42.036 -0.14,-3.17037 -0.14,-6.34425 0,-9.51412 0.3825,-8.64888 -0.43125,-27.40625 -12.61,-42.03613 -2.70625,-3.251 -7.355,-4.6015 -11.6125,-3.36225 l -28.5225,8.29875 c 0,0 5.97875,13.25438 4.62625,38.18263 -0.1325,2.44587 -0.1325,4.90187 0,7.34762 1.3525,24.92825 -4.62625,38.18325 -4.62625,38.18325 l 28.5225,8.29875 c 4.25875,1.23875 8.90625,-0.11125 11.6125,-3.3625"
       style="fill:#21272d;fill-opacity:1;fill-rule:nonzero;stroke:none"
       id="path3705"
       inkscape:connector-curvature="0" />
    <g
       transform="matrix(0,0.125,0.125,0,119.07041,467.05569)"
       id="g3707">
      <g
         id="g3709"
         clip-path="url(#clipPath3711)">
        <path
           d="m 635.438,1843.47 h -49.012 l 236.226,464.67 h 49.012 L 635.438,1843.47"
           style="fill:#4b5762;fill-opacity:1;fill-rule:nonzero;stroke:none"
           id="path3715"
           inkscape:connector-curvature="0" />
        <path
           d="m 721.633,1843.47 h -49.016 l 236.227,464.67 h 49.011 L 721.633,1843.47"
           style="fill:#4b5762;fill-opacity:1;fill-rule:nonzero;stroke:none"
           id="path3717"
           inkscape:connector-curvature="0" />
        <path
           d="m 990.348,1843.47 h -49.016 l 236.228,464.67 h 49.01 L 990.348,1843.47"
           style="fill:#4b5762;fill-opacity:1;fill-rule:nonzero;stroke:none"
           id="path3719"
           inkscape:connector-curvature="0" />
        <path
           d="m 1076.54,1843.47 h -49.01 l 236.22,464.67 h 49.01 l -236.22,-464.67"
           style="fill:#4b5762;fill-opacity:1;fill-rule:nonzero;stroke:none"
           id="path3721"
           inkscape:connector-curvature="0" />
      </g>
    </g>
    <path
       d="m 422.31542,528.51519 h -41.91625 v -5.15525 h 25.9225 c 6.4125,0.5805 11.68125,2.48038 15.99375,5.15525"
       style="fill:#d5242c;fill-opacity:1;fill-rule:nonzero;stroke:none"
       id="path3723"
       inkscape:connector-curvature="0" />
    <path
       d="M 318.00792,528.51519 H 183.63041 c 2.28275,-3.124 5.97514,-5.15525 10.14026,-5.15525 h 124.23725 v 5.15525"
       style="fill:#d5242c;fill-opacity:1;fill-rule:nonzero;stroke:none"
       id="path3725"
       inkscape:connector-curvature="0" />
    <path
       d="m 406.32167,648.14944 h -25.9225 v -6.65625 h 44.14125 c -4.695,3.45375 -10.65625,5.975 -18.21875,6.65625"
       style="fill:#d5242c;fill-opacity:1;fill-rule:nonzero;stroke:none"
       id="path3727"
       inkscape:connector-curvature="0" />
    <path
       d="M 318.00792,648.14944 H 193.77067 c -4.7965,0 -8.96787,-2.69625 -11.084,-6.65625 h 135.32125 v 6.65625"
       style="fill:#d5242c;fill-opacity:1;fill-rule:nonzero;stroke:none"
       id="path3729"
       inkscape:connector-curvature="0" />
    <path
       d="m 191.68417,615.65069 v -59.79175 c 0,-8.24512 6.68363,-14.92925 14.92875,-14.92925 h 127.165 c 8.245,0 14.92875,6.68413 14.92875,14.92925 v 59.79175 c 0,8.24625 -6.68375,14.93 -14.92875,14.93 h -127.165 c -8.24512,0 -14.92875,-6.68375 -14.92875,-14.93"
       style="fill:#e7f1f3;fill-opacity:1;fill-rule:nonzero;stroke:none"
       id="path3731"
       inkscape:connector-curvature="0" />
    <path
       d="m 272.14417,614.81694 13.21,-9.04375 -8.225,-12.01375 h 14.56 v -16.00887 h -14.56 l 8.225,-12.01375 -13.21,-9.04438 -10.19625,14.8925 -10.195,-14.8925 -13.21125,9.04438 8.225,12.01375 h -14.5585 v 16.00887 h 14.5585 l -8.225,12.01375 13.21125,9.04375 10.195,-14.8925 10.19625,14.8925"
       style="fill:#edb11e;fill-opacity:1;fill-rule:nonzero;stroke:none"
       id="path3733"
       inkscape:connector-curvature="0" />
    <path
       d="m 425.57417,597.30945 5.25125,-3.595 -3.26875,-4.77688 5.7875,0 v -6.36474 l -5.7875,0 3.26875,-4.77589 -5.25125,-3.59574 -4.05375,5.92038 -4.0525,-5.92038 -5.2525,3.59574 3.27,4.77589 h -5.78875 v 6.36474 h 5.78875 l -3.27,4.77688 5.2525,3.595 4.0525,-5.92075 4.05375,5.92075"
       style="fill:#edb11e;fill-opacity:1;fill-rule:nonzero;stroke:none"
       id="path3735"
       inkscape:connector-curvature="0" />
    <path
       d="m 317.50291,569.00833 v -15.00288 c 0,-1.70901 1.38626,-3.09526 3.09627,-3.09526 h 8.0825 c 1.70999,0 3.09624,1.38625 3.09624,3.09526 v 15.00288 h -14.275"
       style="fill:#d5242c;fill-opacity:1;fill-rule:nonzero;stroke:none"
       id="path3737"
       inkscape:connector-curvature="0" />
    <path
       d="m 317.50292,569.00832 v 33.49362 h 14.27488 v -33.49362 z"
       style="fill:#36404a;fill-opacity:1;fill-rule:nonzero;stroke:none"
       id="path3739"
       inkscape:connector-curvature="0" />
    <path
       d="m 320.46042,569.00832 v 33.49362 h 8.35986 v -33.49362 z"
       style="fill:#21272d;fill-opacity:1;fill-rule:nonzero;stroke:none"
       id="path3741"
       inkscape:connector-curvature="0" />
    <path
       d="m 320.46041,554.66019 v 10.59816 h 8.35986 v -10.59816 z"
       style="fill:#e43849;fill-opacity:1;fill-rule:nonzero;stroke:none"
       id="path3743"
       inkscape:connector-curvature="0" />
    <path
       d="m 317.50292,617.50444 v -15.0025 h 14.275 v 15.0025 c 0,1.71 -1.38625,3.095 -3.09625,3.095 h -8.0825 c -1.71,0 -3.09625,-1.385 -3.09625,-3.095"
       style="fill:#d5242c;fill-opacity:1;fill-rule:nonzero;stroke:none"
       id="path3745"
       inkscape:connector-curvature="0" />
    <path
       d="m 320.46042,606.25194 v 10.59766 h 8.35986 v -10.59766 z"
       style="fill:#e43849;fill-opacity:1;fill-rule:nonzero;stroke:none"
       id="path3747"
       inkscape:connector-curvature="0" />
    <path
       d="m 178.46692,537.14307 v 12.522 h 2.75244 v -12.522 z"
       style="fill:#d5242c;fill-opacity:1;fill-rule:nonzero;stroke:none"
       id="path3749"
       inkscape:connector-curvature="0" />
    <path
       d="m 178.46692,621.84569 v 12.521 h 2.75244 v -12.521 z"
       style="fill:#d5242c;fill-opacity:1;fill-rule:nonzero;stroke:none"
       id="path3751"
       inkscape:connector-curvature="0" />
  </g>
</svg>
